<svg width="392" height="131" viewBox="0 0 392 131" fill="none" xmlns="http://www.w3.org/2000/svg">
<path d="M391.108 41.192V100.328L381.22 110.12H356.836L348.388 101.768V95.432H359.236V98.6L361.54 101H376.516L380.26 97.16V80.84L372.196 89H356.74L346.948 79.112V41.192H357.796V75.944L361.54 79.688H370.276L380.26 69.32V41.192H391.108Z" fill="white"/>
<path d="M314.623 50.408H305.983V41.192H314.623V31.304L323.839 22.088H340.255V31.112H328.543L325.279 34.28V41.192H340.255V50.408H325.471V89H314.623V50.408Z" fill="white"/>
<path d="M284.604 30.92V25.352L288.54 21.512H294.396L298.332 25.352V30.92L294.396 34.76H288.54L284.604 30.92ZM286.044 41.192H296.892V89H286.044V41.192Z" fill="white"/>
<path d="M250.404 79.496V50.408H241.764V41.192H250.596V25.64H261.252V41.192H275.94V50.408H261.252V76.04L264.996 79.784H275.94V89H259.908L250.404 79.496Z" fill="white"/>
<path d="M190.396 41.192H200.476V48.68L208.06 41.192H226.396L235.996 50.792V79.4L226.396 89H207.964L201.244 83.336V109.352H190.396V41.192ZM221.308 79.688L225.148 75.944V54.248L221.308 50.504H209.788L201.244 59.048V72.392L209.308 79.688H221.308Z" fill="white"/>
<path d="M133.28 79.4V50.792L142.784 41.192H169.28L178.88 50.792V79.4L169.28 89H142.784L133.28 79.4ZM164.192 79.88L168.032 76.04V54.152L164.192 50.312H147.968L144.128 54.152V76.04L147.968 79.88H164.192Z" fill="white"/>
<path d="M391.108 41.192V100.328L381.22 110.12H356.836L348.388 101.768V95.432H359.236V98.6L361.54 101H376.516L380.26 97.16V80.84L372.196 89H356.74L346.948 79.112V41.192H357.796V75.944L361.54 79.688H370.276L380.26 69.32V41.192H391.108Z" fill="white"/>
<path d="M314.623 50.408H305.983V41.192H314.623V31.304L323.839 22.088H340.255V31.112H328.543L325.279 34.28V41.192H340.255V50.408H325.471V89H314.623V50.408Z" fill="white"/>
<path d="M284.604 30.92V25.352L288.54 21.512H294.396L298.332 25.352V30.92L294.396 34.76H288.54L284.604 30.92ZM286.044 41.192H296.892V89H286.044V41.192Z" fill="white"/>
<path d="M250.404 79.496V50.408H241.764V41.192H250.596V25.64H261.252V41.192H275.94V50.408H261.252V76.04L264.996 79.784H275.94V89H259.908L250.404 79.496Z" fill="white"/>
<path d="M190.396 41.192H200.476V48.68L208.06 41.192H226.396L235.996 50.792V79.4L226.396 89H207.964L201.244 83.336V109.352H190.396V41.192ZM221.308 79.688L225.148 75.944V54.248L221.308 50.504H209.788L201.244 59.048V72.392L209.308 79.688H221.308Z" fill="white"/>
<path d="M133.28 79.4V50.792L142.784 41.192H169.28L178.88 50.792V79.4L169.28 89H142.784L133.28 79.4ZM164.192 79.88L168.032 76.04V54.152L164.192 50.312H147.968L144.128 54.152V76.04L147.968 79.88H164.192Z" fill="white"/>
<path d="M391.108 41.192V100.328L381.22 110.12H356.836L348.388 101.768V95.432H359.236V98.6L361.54 101H376.516L380.26 97.16V80.84L372.196 89H356.74L346.948 79.112V41.192H357.796V75.944L361.54 79.688H370.276L380.26 69.32V41.192H391.108Z" fill="white"/>
<path d="M314.623 50.408H305.983V41.192H314.623V31.304L323.839 22.088H340.255V31.112H328.543L325.279 34.28V41.192H340.255V50.408H325.471V89H314.623V50.408Z" fill="white"/>
<path d="M284.604 30.92V25.352L288.54 21.512H294.396L298.332 25.352V30.92L294.396 34.76H288.54L284.604 30.92ZM286.044 41.192H296.892V89H286.044V41.192Z" fill="white"/>
<path d="M250.404 79.496V50.408H241.764V41.192H250.596V25.64H261.252V41.192H275.94V50.408H261.252V76.04L264.996 79.784H275.94V89H259.908L250.404 79.496Z" fill="white"/>
<path d="M190.396 41.192H200.476V48.68L208.06 41.192H226.396L235.996 50.792V79.4L226.396 89H207.964L201.244 83.336V109.352H190.396V41.192ZM221.308 79.688L225.148 75.944V54.248L221.308 50.504H209.788L201.244 59.048V72.392L209.308 79.688H221.308Z" fill="white"/>
<path d="M133.28 79.4V50.792L142.784 41.192H169.28L178.88 50.792V79.4L169.28 89H142.784L133.28 79.4ZM164.192 79.88L168.032 76.04V54.152L164.192 50.312H147.968L144.128 54.152V76.04L147.968 79.88H164.192Z" fill="white"/>
<path d="M83.8199 18.7303L111.115 45.553L111.449 83.8199L84.6261 111.115L46.3592 111.449L19.0643 84.6261L18.7303 46.3592L45.553 19.0643L83.8199 18.7303Z" fill="#10B519"/>
<path d="M77.6739 32.1112L96.7804 50.8871L97.0141 77.6739L78.2383 96.7803L51.4515 97.0141L32.345 78.2383L32.1113 51.4514L50.8871 32.345L77.6739 32.1112Z" fill="#0D0D0D"/>
<path d="M41.3678 25.3464L48.4214 31.8098L48.8387 41.3678L42.3753 48.4214L32.8173 48.8387L25.7637 42.3753L25.3464 32.8173L31.8098 25.7637L41.3678 25.3464Z" fill="#10B519"/>
<path d="M39.1187 32.7101L41.9402 35.2955L42.1071 39.1187L39.5217 41.9401L35.6985 42.107L32.8771 39.5217L32.7102 35.6985L35.2955 32.877L39.1187 32.7101Z" fill="#0D0D0D"/>
<path d="M97.2967 80.2753L104.35 86.7387L104.768 96.2967L98.3041 103.35L88.7462 103.768L81.6926 97.3041L81.2753 87.7462L87.7387 80.6926L97.2967 80.2753Z" fill="#10B519"/>
<path d="M95.1187 87.7101L97.9402 90.2955L98.1071 94.1187L95.5217 96.9401L91.6985 97.107L88.8771 94.5217L88.7102 90.6985L91.2955 87.877L95.1187 87.7101Z" fill="#0D0D0D"/>
<path d="M111.558 19.0018L111.383 45.1606L85.3988 19.1767L111.558 19.0018Z" fill="#10B519"/>
<path d="M64.9406 18.9406L78.2456 18.9946L64.9946 32.2456L64.9406 18.9406Z" fill="#10B519"/>
<path d="M111.277 65.0581L96.8232 65.0389L111.258 50.6039L111.277 65.0581Z" fill="#10B519"/>
<rect x="97.5289" y="22" width="13.5485" height="91.2576" transform="rotate(45 97.5289 22)" fill="#10B519"/>
<path d="M83.8199 18.7303L111.115 45.553L111.449 83.8199L84.6261 111.115L46.3592 111.449L19.0643 84.6261L18.7304 46.3592L45.553 19.0643L83.8199 18.7303Z" fill="#10B519"/>
<path d="M77.674 32.1112L96.7804 50.8871L97.0142 77.6739L78.2383 96.7803L51.4515 97.0141L32.3451 78.2383L32.1113 51.4514L50.8871 32.345L77.674 32.1112Z" fill="#0D0D0D"/>
<path d="M41.3679 25.3464L48.4215 31.8098L48.8388 41.3678L42.3753 48.4214L32.8174 48.8387L25.7638 42.3753L25.3465 32.8173L31.8099 25.7637L41.3679 25.3464Z" fill="#10B519"/>
<path d="M39.1187 32.7101L41.9402 35.2955L42.1071 39.1187L39.5217 41.9401L35.6985 42.107L32.8771 39.5217L32.7102 35.6985L35.2956 32.877L39.1187 32.7101Z" fill="#0D0D0D"/>
<path d="M97.2967 80.2753L104.35 86.7387L104.768 96.2967L98.3042 103.35L88.7462 103.768L81.6926 97.3041L81.2753 87.7462L87.7387 80.6926L97.2967 80.2753Z" fill="#10B519"/>
<path d="M42.629 79.4796L49.5688 86.0651L49.8192 95.629L43.2337 102.569L37.5 100L31 94L26.4797 86.6698L33.0652 79.73L42.629 79.4796Z" fill="#10B519"/>
<rect x="65" y="18" width="47" height="47" fill="#0D0D0D"/>
<path d="M95.1188 87.7101L97.9402 90.2955L98.1071 94.1187L95.5217 96.9401L91.6985 97.107L88.8771 94.5217L88.7102 90.6985L91.2956 87.877L95.1188 87.7101Z" fill="#0D0D0D"/>
<path d="M111.558 19.0018L111.383 45.1606L85.3989 19.1767L111.558 19.0018Z" fill="#10B519"/>
<rect x="97.5289" y="22" width="13.5485" height="91.2576" transform="rotate(45 97.5289 22)" fill="#10B519"/>
<rect x="50.4416" y="19.0224" width="28" height="13.5" transform="rotate(-0.5 50.4416 19.0224)" fill="#10B519"/>
<rect width="28.4" height="14.4" transform="matrix(-0.00872654 -0.999962 -0.999962 0.00872654 111.397 74.9954)" fill="#10B519"/>
<rect x="59.2784" y="37.8987" width="27.8462" height="15.699" transform="rotate(-45 59.2784 37.8987)" fill="#0D0D0D"/>
<rect x="82" y="56.6903" width="27.8462" height="17.2141" transform="rotate(-45 82 56.6903)" fill="#0D0D0D"/>
</svg>