<svg width="96" height="96" viewBox="0 0 96 96" fill="none" xmlns="http://www.w3.org/2000/svg">
  <!-- Green geometric logo - placeholder based on description -->
  <rect width="96" height="96" fill="#000000"/>
  <!-- Main green C-shaped structure -->
  <path d="M20 20 L20 40 L30 40 L30 30 L50 30 L50 20 L20 20 Z" fill="#00FF00" stroke="#00FF00" stroke-width="2"/>
  <path d="M20 56 L20 76 L50 76 L50 66 L30 66 L30 56 L20 56 Z" fill="#00FF00" stroke="#00FF00" stroke-width="2"/>
  <!-- Diagonal bar with arrow -->
  <path d="M20 76 L60 36 L70 36 L70 46 L60 46 L30 76 L20 76 Z" fill="#00FF00"/>
  <path d="M70 36 L80 26 L85 31 L75 41 L70 36 Z" fill="#00FF00"/>
  <!-- Octagonal cutouts -->
  <polygon points="25,25 31,25 35,29 35,35 31,39 25,39 21,35 21,29" fill="#000000"/>
  <polygon points="61,61 67,61 71,65 71,71 67,75 61,75 57,71 57,65" fill="#000000"/>
</svg>



